<?xml version="1.0" encoding="UTF-8" standalone="no"?>
<svg
   version="1.1"
   viewBox="0 0 128 128"
   id="svg111"
   sodipodi:docname="nabi_logo.svg"
   width="128"
   height="128"
   inkscape:version="1.4 (e7c3feb1, 2024-10-09)"
   xmlns:inkscape="http://www.inkscape.org/namespaces/inkscape"
   xmlns:sodipodi="http://sodipodi.sourceforge.net/DTD/sodipodi-0.dtd"
   xmlns="http://www.w3.org/2000/svg"
   xmlns:svg="http://www.w3.org/2000/svg">
  <sodipodi:namedview
     id="namedview111"
     pagecolor="#ffffff"
     bordercolor="#000000"
     borderopacity="0.25"
     inkscape:showpageshadow="2"
     inkscape:pageopacity="0.0"
     inkscape:pagecheckerboard="0"
     inkscape:deskcolor="#d1d1d1"
     inkscape:zoom="4.5907257"
     inkscape:cx="72.10189"
     inkscape:cy="51.625824"
     inkscape:window-width="1512"
     inkscape:window-height="945"
     inkscape:window-x="0"
     inkscape:window-y="37"
     inkscape:window-maximized="0"
     inkscape:current-layer="Layer_1" />
  <defs
     id="defs1">
    <style
       id="style1">
      .cls-1 {
        fill: #5d5c5b;
      }

      .cls-2 {
        fill: #eae9e9;
      }

      .cls-3 {
        fill: #fcb231;
      }

      .cls-4 {
        fill: #ff7400;
      }

      .cls-5 {
        fill: #949495;
      }

      .cls-6 {
        fill: #fefefe;
      }
    </style>
  </defs>
  <!-- Generator: Adobe Illustrator 28.7.3, SVG Export Plug-In . SVG Version: 1.2.0 Build 164)  -->
  <g
     id="g111">
    <g
       id="Layer_1">
      <g
         id="g97"
         transform="matrix(0.23412234,0,0,0.2523834,-28.004182,-17.790116)">
        <path
           class="cls-4"
           d="m 395.9,322.9 c 0.3,-1.2 0.6,-2.3 0.9,-3.5 12.6,-45 32.1,-86.4 63,-121.8 30.4,-34.8 66.7,-61.3 111,-76 14.8,-4.9 30,-7.4 45.5,-6.1 21.7,1.7 41.8,14.9 45.1,39.9 1.3,9.8 -1.1,20.1 -2.3,30.1 -2,15.8 -5.1,31.5 -6.7,47.3 -1.7,17.2 -2,34.5 -3.5,51.8 -2.5,30.4 -19.6,49.4 -47.6,59.3 -7.9,2.8 -16.2,4.4 -24.1,6.5 5,4.5 10.7,8.9 15.5,14.1 12.4,13.2 19.7,28.7 21.2,47 2.3,29.4 -8.7,54.4 -25.4,77.4 -9.9,13.6 -21,26.2 -35.2,35.6 -23.6,15.6 -47.4,15.2 -71.2,1 -22.5,-13.4 -39.1,-32.7 -52.8,-54.6 -15.7,-25.2 -26.7,-52.5 -33.7,-81.7 -0.3,1 -0.7,1.9 -0.9,2.9 -8.1,36.5 -22.2,70.4 -45.6,99.9 -13.6,17.1 -30.1,30.9 -50.6,39.1 -20.7,8.3 -40.3,5 -59,-6.4 -21.7,-13.2 -36.8,-32.4 -49.6,-53.8 -7.9,-13.1 -13.6,-27.2 -15.5,-42.4 -3.4,-27.3 4.2,-50.8 25.5,-69.1 3.7,-3.2 7.6,-6 11.9,-9.4 -12.1,-1.2 -23.2,-3.9 -33.9,-8.4 -17.7,-7.5 -32.1,-18.9 -37.7,-38.1 -2.6,-9 -3.6,-18.5 -4.4,-27.8 -1.7,-19.5 -2.3,-39.1 -4.4,-58.5 -1.4,-13 -4.4,-25.9 -6.6,-38.8 -1.8,-10.4 -3.4,-20.8 0.7,-31.1 7.1,-17.9 21.2,-27.3 39.3,-30.8 18.4,-3.6 36.5,-0.1 54.3,4.9 31.4,9 58.6,25.6 83.4,46.4 47.7,40.1 75.7,92.1 91.5,151.5 0.3,1.2 0.8,2.4 1.1,3.6 0.3,0 0.5,0 0.8,0 z"
           id="path86" />
        <g
           id="g92">
          <path
             class="cls-3"
             d="m 584.3,202.9 c -2.2,2.5 -4.3,4.9 -6.5,7.2 -40.4,42.4 -81,84.5 -121,127.3 -6.5,6.9 -12.6,10 -21.6,8.7 -4.6,-0.6 -9.4,-0.1 -14.7,-0.1 33.7,-35.3 66.9,-70 100.2,-104.8 0.9,0.3 1.8,0.5 2.7,0.8 8.3,2.2 15.6,0.3 21.6,-5.7 6.2,-6.2 8,-13.7 5.6,-22 -3.4,-12 -15.6,-18.5 -27.2,-14.8 -11.7,3.7 -18.3,16.2 -14.3,28.1 1,3 0.4,4.7 -1.7,6.9 -35.4,36.4 -70.7,73 -106.2,109.3 -3.7,3.8 -5.2,7.5 -4.8,12.7 0.3,3.5 1.3,4.5 4.7,4.5 10.3,-0.2 20.5,-0.2 30.8,0 1.4,0 3.3,0.9 4.2,2 14.5,16.5 28.9,33.2 43.3,49.7 9,10.3 18.2,20.5 27.3,30.8 -0.8,1.2 -1.6,2.3 -2.2,3.4 -5.7,10.1 -3,22.5 6.4,29.1 8,5.6 18.2,5.2 26.4,-1 7.2,-5.4 10.3,-16.2 7.2,-25.2 -3,-8.7 -11.2,-14.5 -20.9,-14.3 -3,0 -5.1,-0.7 -7.2,-3 -18.9,-21.2 -37.9,-42.3 -56.8,-63.5 -2.1,-2.4 -4.1,-4.9 -6.2,-7.3 0.2,-0.4 0.3,-0.8 0.5,-1.2 10.5,0 21.1,0.5 31.6,-0.2 7.5,-0.5 12.5,2.3 17.2,7.7 9.9,11.4 20.1,22.4 30.3,33.5 2.1,2.3 2.8,4.2 1.5,7.3 -3.4,8.5 -1.5,16.4 4.7,22.8 6.1,6.4 13.8,8.3 22.3,5.7 11.4,-3.4 17.8,-15.6 14.7,-27.3 -3.1,-11.5 -14.1,-17.8 -26.1,-15.3 -1.4,0.3 -3.6,-0.4 -4.7,-1.4 -3.5,-3.4 -6.7,-7.2 -10,-10.9 -9,-10 -18,-19.9 -27.2,-30 0.8,-0.8 1.4,-1.5 2,-2.2 18,-18.6 36,-37.1 54.1,-55.6 2.4,-2.5 4.8,-5 7.6,-7 3.8,-2.7 5,-2.3 7.5,1.5 5,7.5 12,11.4 21,10.3 9.2,-1.1 17.4,-8.6 19.3,-17 2.1,-9.3 -0.5,-17.2 -8,-23.1 -11.3,-8.8 -27.5,-4.5 -33.2,8.9 -0.9,2.2 -1.9,2.8 -4.2,3.2 -2.9,0.5 -6,1.5 -8.4,3 -3.1,2 -5.8,4.7 -8.4,7.3 -19.6,19.8 -39.1,39.7 -58.7,59.5 -1.6,1.7 -3.7,4 -5.6,4.1 -7.9,0.5 -15.8,0.2 -24,0.2 1.2,-1.3 2.5,-2.8 3.9,-4.2 23.9,-25.1 47.8,-50.2 71.6,-75.4 16.2,-17.1 32.4,-34.3 48.6,-51.5 1.6,-1.7 3,-2.1 5.5,-1.8 3.5,0.5 7.2,0.2 10.6,-0.6 10.7,-2.7 17.4,-13.1 16.2,-24.4 -1.1,-9.9 -10.3,-18.1 -21.2,-18.9 -10.1,-0.7 -19.8,6.7 -22.5,16.8 -1.6,6.2 -0.2,11.8 2.5,17.3 z"
             id="path87" />
          <path
             class="cls-3"
             d="m 194.8,237.2 c 0.1,0 0.3,0.1 0.3,0.2 0.4,0.5 0.8,1.1 1.2,1.6 9.2,14.2 22.4,21.9 38.9,24.4 5.3,0.8 9.1,-1.6 9.9,-6.2 0.8,-4.4 -1.9,-7.7 -7.2,-8.5 -11.2,-1.8 -20.4,-6.8 -27,-16.1 -9.6,-13.6 -7.1,-35.2 4.9,-47.4 6.4,-6.5 14.5,-10.2 23,-13.1 4.6,-1.6 6.1,-4.8 4.9,-9.5 -1,-3.8 -4.3,-5.8 -8.7,-4.8 -12,2.7 -22.4,8.3 -30.6,17.5 -11.2,12.5 -15.5,27.3 -14.4,43.8 0.2,2.4 -0.7,3.3 -2.7,4.4 -5.2,2.9 -10.7,5.5 -15.2,9.4 -24,20.6 -16.6,59.5 3.6,74.1 7.5,5.4 15.5,9.8 25,10.2 4,0.2 6,-2.5 7,-5.9 0.9,-3.2 -0.9,-6.7 -4.2,-8.1 -1.9,-0.8 -4,-1.4 -6,-2.1 -17.7,-5.8 -26.1,-17.7 -25.7,-36.2 0.3,-12.7 10.7,-25.1 23.1,-27.7 z"
             id="path88" />
          <path
             class="cls-3"
             d="m 247.8,453.6 c 3.9,-0.6 7.9,-0.8 11.8,-1.7 19.9,-4.6 39.4,-22.3 41.8,-47.8 0.2,-2.3 0.8,-3.6 3.7,-4 16.8,-2.2 28.1,-13 38,-25.5 3.2,-4.1 2.6,-8.2 -0.9,-10.9 -3.1,-2.4 -6.8,-1.8 -10.2,1.7 -3.7,3.7 -7.1,7.7 -11,11 -11.8,9.8 -25,13.9 -40,8.4 -7.6,-2.8 -13,-8.6 -17.6,-15.1 -3.1,-4.3 -8.3,-5.5 -11.8,-2.9 -3.3,2.4 -3.9,7.2 -0.4,11.3 4.7,5.5 9.6,11.2 15.4,15.5 4.5,3.3 10.4,5 16,6.6 4,1.2 5.1,1.5 3.9,5.6 -3.7,13.1 -13.8,29.8 -33.5,32.4 -12.2,1.6 -24.1,-2.4 -26.9,-17.3 -0.8,-4.3 -0.8,-8.7 -0.7,-13.1 0.1,-4.9 -1.4,-7.8 -5.1,-8.5 -4.3,-0.8 -7.7,1.4 -8.7,6.2 -0.7,3.6 -1,7.4 -0.9,11.1 0.4,21 16.3,36.7 37.1,37.1 z"
             id="path89" />
          <path
             class="cls-3"
             d="m 319.1,289.8 c 6.7,0 9.8,-2.2 10.3,-6.3 0.6,-4.8 -1.6,-8.6 -5.8,-9.1 -9.8,-1.1 -15.7,-7.3 -19.3,-15.4 -2.9,-6.3 -4.4,-13.3 -6.1,-20.1 -5.4,-22.3 -18.7,-33.7 -41.3,-37.4 -7.1,-1.2 -11.1,3.3 -9.4,9.8 1,3.8 4.1,4.8 7.5,5.6 4.4,1.1 8.8,2 12.9,3.9 10.6,4.8 14.4,14.4 16.4,24.9 2.3,11.9 5.4,23.4 14.6,32.1 6.2,5.9 13,11 20.3,12 z"
             id="path90" />
          <path
             class="cls-3"
             d="m 234.1,284.1 c -2.2,1.7 -4.6,2.8 -5.8,4.6 -2.1,3.1 -0.9,6.3 1,9.3 8.4,13.2 20,21.9 35.5,24.7 9.9,1.8 17.9,6.4 23.9,14.5 0.6,0.9 1.2,1.8 2,2.5 3.1,2.9 7.5,2.8 10.8,-0.1 2.6,-2.3 3.2,-6 1,-9 -8.4,-11.4 -18.7,-19.7 -33.3,-21.8 -9,-1.3 -16.8,-5.5 -22.8,-12.7 -2.2,-2.7 -4.3,-5.5 -6.7,-7.9 -1.4,-1.5 -3.3,-2.4 -5.6,-4 z"
             id="path91" />
          <path
             class="cls-3"
             d="m 322.6,448.2 c 0.4,-5.8 -2,-9.4 -6.4,-9.7 -4.6,-0.3 -7.3,2.9 -8.1,8.7 -0.6,4.3 -1.4,8.7 -2.9,12.7 -6,15.5 -17.5,23.9 -33.9,25.7 -5.1,0.5 -8.2,3.5 -7.9,8.1 0.3,4.5 3.5,7.3 8.4,7 2.1,0 4.3,-0.2 6.3,-0.7 20.2,-4.1 44.3,-23 44.4,-51.9 z"
             id="path92" />
        </g>
        <path
           class="cls-4"
           d="m 611.6,191.2 c 0,4.7 -3.6,7.9 -8.5,7.9 -4.9,0 -8.2,-3.4 -8.1,-8.3 0,-4.8 3.6,-8.3 8.3,-8.2 4.9,0 8.4,3.7 8.4,8.6 z"
           id="path93" />
        <path
           class="cls-4"
           d="m 590.2,277.4 c 0,-5 4,-9.1 8.7,-9 4.1,0.1 7.9,4.2 7.8,8.5 0,4.7 -4,8.6 -8.6,8.6 -4.5,0 -7.9,-3.5 -7.9,-8.1 z"
           id="path94" />
        <path
           class="cls-4"
           d="m 523.9,465.6 c -4.7,0 -8.5,-3.5 -8.7,-8 -0.2,-4.2 4.2,-8.4 8.8,-8.5 4.5,0 8.3,3.8 8.3,8.3 0,4.5 -3.7,8.1 -8.4,8.2 z"
           id="path95" />
        <path
           class="cls-4"
           d="m 537.9,220.7 c 0,4.7 -3.6,8.1 -8.4,8.1 -4.8,0 -8.1,-3.5 -8.1,-8.3 0,-4.7 3.7,-8.2 8.4,-8.2 4.6,0 8.1,3.8 8.1,8.4 z"
           id="path96" />
        <path
           class="cls-4"
           d="m 555,408 c 4.9,0 8.6,3.3 8.6,7.9 0,4.8 -3.3,8.2 -8.3,8.2 -4.8,0 -8.2,-3.1 -8.3,-7.7 -0.1,-4.9 3.2,-8.4 7.9,-8.5 z"
           id="path97" />
      </g>
    </g>
  </g>
</svg>
